<svg xmlns="http://www.w3.org/2000/svg" xmlns:xlink="http://www.w3.org/1999/xlink" width="12" height="15" viewBox="0 0 24 30"><defs><path id="b296a" d="M3331 795.55v-9.97c0-2.02 1.2-4.02 3-4.58v-3c0-4.47 3.72-8 8.1-8h1.8c4.38 0 8.1 3.55 8.1 8v3c1.97.56 3 2.56 3 4.58v9.97c0 2.49-1.99 4.45-4.44 4.45h-15.12a4.43 4.43 0 0 1-4.44-4.45zm5-17.55v3h14v-3c0-3.25-2.8-6-6-6h-2c-3.2 0-6 2.75-6 6zm17 17v-9c0-1.3-.73-3-2-3h-16c-1.27 0-2 1.7-2 3v9c0 1.3.73 3 2 3h16c1.27 0 1.85-1.22 1.85-2.5zm-11-1v-3c0-.6.4-1 1-1 .59 0 1 .4 1 1v3c0 .6-.41 1-1 1-.6 0-1-.4-1-1z"/></defs><g><g transform="translate(-3331 -770)"><use fill="#8a959e" xlink:href="#b296a"/></g></g></svg>