<svg xmlns="http://www.w3.org/2000/svg" xmlns:xlink="http://www.w3.org/1999/xlink" width="15" height="11" viewBox="0 0 30 22"><defs><path id="x74aa" d="M3355 681h-24c-.96 0-1.8-.44-2.33-1.14l-.18-.15a.96.96 0 0 1-.27-.66c-.13-.35-.2-.73-.2-1.13v-15.84A3 3 0 0 1 3331 659h24a3 3 0 0 1 2.2.93c.5.53.8 1.25.8 2.07v16c.02.43-.06.84-.22 1.2-.03.19-.1.36-.23.5l-.14.14A3.08 3.08 0 0 1 3355 681zm-24-2h24c.1 0 .2-.02.29-.05l-8.5-8.2-3.06 2.78c-.2.14-.47.28-.67.28a.85.85 0 0 1-.68-.28l-3.1-2.8-8.49 8.25.2.02zm25-16.57l-7.7 6.97 7.7 7.43zm-26-.1v14.55l7.78-7.51zm13 8.67l11.52-10h-22.94z"/></defs><g><g transform="translate(-3328 -659)"><use fill="#8a959e" xlink:href="#x74aa"/></g></g></svg>