<svg xmlns="http://www.w3.org/2000/svg" xmlns:xlink="http://www.w3.org/1999/xlink" width="15" height="15" viewBox="0 0 30 30"><defs><path id="4ncxa" d="M3357.15 918.97c-.88 1.1-2.08 2.6-5.45 3-.06 0-.27.03-.63.03-1.72 0-7.88-.56-15.1-7.82-6.47-6.5-8.7-11.1-7.73-15.88.7-3.42 2.56-5.07 2.93-5.38.62-.6 1.42-.92 2.27-.92.83 0 1.61.32 2.2.9l4.33 4.36a3.21 3.21 0 0 1-.06 4.52l-1.7 1.7a20.66 20.66 0 0 0 3.55 4.89 20.55 20.55 0 0 0 4.86 3.55l1.69-1.7a3.23 3.23 0 0 1 2.3-.96c.84 0 1.62.32 2.2.9l4.33 4.36c1.15 1.16 1.15 3.03.01 4.45zm-1.33-3.13l-4.33-4.35a1.24 1.24 0 0 0-.88-.36c-.37 0-.72.15-.98.42l-1.8 1.8c-.3.34-.7.52-1.13.52-.36 0-.66-.13-.8-.21-1.42-.8-3.38-1.88-5.46-3.97a22.7 22.7 0 0 1-3.95-5.5 1.54 1.54 0 0 1 .16-1.78l.03-.03 1.91-1.92c.53-.53.56-1.38.06-1.88l-4.33-4.35a1.22 1.22 0 0 0-.88-.36c-.37 0-.72.15-1 .42l-.04.05-.06.04c-.06.05-1.67 1.31-2.28 4.3-.83 4.08 1.26 8.19 7.22 14.18 6.72 6.75 12.25 7.27 13.79 7.27.27 0 .41-.02.41-.02 2.61-.3 3.4-1.28 4.22-2.31.45-.55.67-1.4.12-1.96z"/></defs><g><g transform="translate(-3328 -892)"><use fill="#8a959e" xlink:href="#4ncxa"/></g></g></svg>