<svg xmlns="http://www.w3.org/2000/svg" xmlns:xlink="http://www.w3.org/1999/xlink" width="13" height="15" viewBox="0 0 26 30"><defs><path id="hof6a" d="M3356 566l-1.05-.02-.95.02c0-5.12-4.57-10-10-10s-11 4.88-11 10l-.87-.02h-1.56c0-6.8 6.28-11.98 13.43-11.98 7.15 0 12 5.2 12 12zm-20-22c0-4.6 3.28-8 8-8 4.72 0 8 3.4 8 8 0 4.59-3.28 8-8 8-4.72 0-8-3.41-8-8zm2 0c0 2.92 3 6 6 6s6-3.08 6-6-3-6-6-6-6 3.08-6 6z"/></defs><g><g transform="translate(-3330 -536)"><use fill="#8a959e" xlink:href="#hof6a"/></g></g></svg>